<svg xmlns="http://www.w3.org/2000/svg" width="16" height="16" viewBox="0 0 16 16" fill="none">
  <path d="M8.00001 1.33331C4.32001 1.33331 1.33334 4.31998 1.33334 7.99998C1.33334 11.68 4.32001 14.6666 8.00001 14.6666C11.68 14.6666 14.6667 11.68 14.6667 7.99998C14.6667 4.31998 11.68 1.33331 8.00001 1.33331ZM8.00001 11.3333C7.63334 11.3333 7.33334 11.0333 7.33334 10.6666V7.99998C7.33334 7.63331 7.63334 7.33331 8.00001 7.33331C8.36668 7.33331 8.66668 7.63331 8.66668 7.99998V10.6666C8.66668 11.0333 8.36668 11.3333 8.00001 11.3333ZM8.66668 5.99998H7.33334V4.66665H8.66668V5.99998Z" fill="#6E6E73"/>
</svg>